<?xml version="1.0" encoding="UTF-8"?>
<svg width="161px" height="30px" viewBox="0 0 161 30" version="1.1" xmlns="http://www.w3.org/2000/svg" xmlns:xlink="http://www.w3.org/1999/xlink">
    <!-- Generator: Sketch 51.2 (57519) - http://www.bohemiancoding.com/sketch -->
    <title>Group</title>
    <desc>Created with Sketch.</desc>
    <defs>
        <polygon id="path-1" points="25.1896494 0.111917202 0.0348072957 0.111917202 0.0348072957 23.1627167 25.1896494 23.1627167"></polygon>
        <polygon id="path-3" points="25.7234759 24.6688721 0 24.6688721 0 0.00180950648 25.7234759 0.00180950648"></polygon>
    </defs>
    <g id="Page-1" stroke="none" stroke-width="1" fill="none" fill-rule="evenodd">
        <g id="Group">
            <path d="M45.247372,10.9434827 C45.2800422,10.911436 45.3200816,10.8756915 45.3787898,10.8310725 C46.0692859,10.306738 45.332118,10.3348405 44.7629684,10.3348405 L44.7607576,10.3326219 L43.1557409,10.3326219 C42.9926354,10.3232544 42.8209325,10.3170915 42.6308066,10.3170915 C42.5072493,10.3170915 42.3947458,10.3190636 42.2994372,10.3205427 L42.1309276,10.3225148 C41.966594,10.3225148 41.80791,10.3262125 41.6526651,10.3326219 L41.4102176,10.3326219 L41.4102176,10.3471662 C37.10217,10.6274522 36.4693994,13.4396801 36.3831795,15.5993863 L36.4111825,23.4141158 C36.4011113,24.0141301 36.5371962,24.4497197 36.8270523,24.7452896 C37.0943095,25.0179337 37.4821762,25.1559814 37.9805813,25.1559814 L37.9825465,25.1559814 C38.4782495,25.1557349 38.8688183,25.0154686 39.1431991,24.7388802 C39.4426352,24.4371475 39.5873176,23.9988462 39.5853524,23.4000646 L39.5851068,16.0704739 C39.6452888,14.0946669 40.3102383,13.3551259 42.0380754,13.3415676 C42.067798,13.3413211 42.08966,13.3408281 42.1154523,13.3405816 L42.9162411,13.3405816 C43.1741639,13.3403351 43.4691785,13.2338412 43.6337578,12.9402434 C44.0061492,12.1570695 44.5477871,11.4855663 45.247372,10.9434827" id="Fill-1" fill="#002674" fill-rule="nonzero"></path>
            <path d="M48.5769588,13.8165748 C49.8257964,13.1845138 51.2134211,13.2190257 52.2893276,13.9092639 C53.0206001,14.3783794 53.3060347,15.1053482 53.1399815,16.0726678 L47.4907353,16.0726678 C47.4506959,14.9019745 47.7855042,14.2176525 48.5769588,13.8165748 M69.0555377,11.0696731 C69.0931207,11.0383658 69.1314407,11.0110028 69.1692694,10.9814212 C69.1997288,10.9407464 69.2552436,10.8879925 69.3483415,10.8169966 C70.0388376,10.292662 69.3019154,10.3207646 68.7327657,10.3207646 L68.7239227,10.3126296 C67.2930652,10.3141087 65.6696254,10.3096715 63.8118444,10.3143552 C63.5273924,10.30129 63.2761019,10.2943876 63.0309524,10.2943876 C62.4566443,10.2943876 61.9127957,10.329146 60.9528316,10.427012 C59.3755722,10.5882319 58.183232,11.5962263 57.6821248,13.1928952 C57.4165872,14.0386836 57.3568965,14.8364018 57.4927358,15.5537566 C57.5101763,15.6567993 57.5313014,15.7546652 57.5566024,15.8471078 C57.557585,15.8508055 57.5585675,15.8547498 57.5595501,15.8584475 C57.5929572,15.9780066 57.6298034,16.0923889 57.6722992,16.1974038 L57.6727905,16.1909944 C57.7280597,16.3332328 57.7902068,16.472513 57.8641446,16.6058769 C58.3880964,17.5537219 59.364764,18.2360717 60.6841006,18.5774932 C62.6015723,19.0946788 63.7958777,19.6690556 63.8211787,20.9282474 C63.767629,21.624402 63.4092392,22.0417496 62.7261122,22.2034626 C62.244902,22.3175984 61.6728046,22.3210496 61.1751365,22.3240078 L50.5293115,22.2552305 L50.5285746,22.2552305 C49.7145211,22.2658305 49.0812593,22.130248 48.60619,21.8351712 C47.7953299,21.3308042 47.4374313,20.4048989 47.5401091,19.080874 L47.5617255,19.080874 C47.8422473,19.0811206 48.12891,19.0813671 48.4145902,19.0806275 C48.9648255,19.0791485 49.4868121,19.080381 49.9987275,19.0818601 C51.1900852,19.0853113 52.3148742,19.0882695 53.5904867,19.0547436 C55.3664694,19.007906 56.3603319,18.0203723 56.4654662,16.1983898 C56.5917255,14.0130462 55.342151,11.9324709 53.3561454,11.0213564 C51.532754,10.1844425 49.9606532,10.1198559 47.9311692,10.798015 C45.6838019,11.5484026 44.4430704,13.1613415 44.3433403,15.4625465 C44.2659634,17.2431147 44.2733327,18.8523559 44.3661849,20.3817266 C44.4840924,22.3267194 45.5076775,23.7855873 47.326156,24.6005614 C48.1745992,24.9806855 49.0544844,25.1971245 50.006588,25.2631902 L50.006588,25.2772414 L61.8486834,25.2861159 C64.9113324,25.2410039 66.8550878,23.7370241 67.0751819,21.0485461 C67.0999916,20.7455808 67.0899203,20.3538706 67.0115609,19.9493417 C66.7005797,18.431064 65.4866231,16.8676744 63.5509739,16.2506507 C63.5384462,16.2449809 63.5269011,16.2380785 63.5138821,16.2336413 C63.1137333,16.0963331 62.7339727,15.9900858 62.3991644,15.8961641 C61.5517037,15.6587714 61.062633,15.5022352 60.8179748,15.1876838 C60.5465417,14.8822534 60.5529284,14.5282598 60.6342355,14.2548761 C60.6632211,14.0985864 60.7292985,13.9605388 60.8403281,13.8399936 C61.1333775,13.5210049 61.6823846,13.3615106 62.0687775,13.3479523 C62.6266277,13.3287243 62.9702791,13.3255196 63.4684386,13.3225614 L64.6001056,13.3191102 C64.6568486,13.3218219 64.7155567,13.3279847 64.7708259,13.3279847 C64.8310079,13.3279847 64.8857858,13.3220684 64.9425288,13.3181242 L67.0906572,13.3117148 C67.2928196,13.2601935 67.4890866,13.1359506 67.6042921,12.899544 C67.6276279,12.8517203 67.6472792,12.8268225 67.6644741,12.8167154 C67.7180237,12.710961 67.7723104,12.6056997 67.8322467,12.5041361 C68.152071,11.9620525 68.5608172,11.4813509 69.0555377,11.0696731" id="Fill-3" fill="#002674" fill-rule="nonzero"></path>
            <path d="M146.760062,19.8133647 C146.687107,21.0843892 146.014788,21.9087309 144.866417,22.1342909 C144.516625,22.2028217 144.164867,22.2395522 143.830305,22.2437429 C143.485916,22.2395522 143.134159,22.2028217 142.784121,22.1342909 C141.63575,21.9084843 140.963677,21.0843892 140.890722,19.8133647 C140.871807,19.4832829 140.855349,18.6877834 140.849208,17.7926923 C140.855349,16.8916848 140.871807,16.0959387 140.890722,15.7656104 C140.963677,14.494586 141.63575,13.6707373 142.784121,13.4449308 C143.132439,13.3766465 143.482723,13.3396695 143.825146,13.3352322 C144.168061,13.3396695 144.518344,13.3766465 144.866417,13.4449308 C146.014788,13.6704908 146.687107,14.494586 146.760062,15.7658569 C146.782907,16.1622509 146.796417,17.0728724 146.80133,17.7865294 C146.796417,18.5065958 146.782907,19.4169708 146.760062,19.8133647 Z M117.88843,24.7505403 L117.88843,24.7498008 L117.888675,24.7498008 L117.88843,24.7505403 Z M150.091442,19.8641466 C150.104707,19.6849311 150.11576,19.5108925 150.12534,19.339812 C150.132955,19.3104769 150.137868,19.2799092 150.138851,19.2483554 C150.160958,18.7378256 150.171521,18.2605752 150.170784,17.7902271 C150.171521,17.3186465 150.160958,16.8411495 150.138851,16.3306197 C150.137868,16.300052 150.133201,16.2702239 150.12534,16.2416283 C150.11576,16.0695618 150.104952,15.8950301 150.091442,15.7148286 C150.02733,14.8520308 149.759581,13.9899725 149.272721,13.0798441 C148.341743,11.337732 146.310048,10.2979374 143.811882,10.2979374 C141.340736,10.2979374 139.309041,11.337732 138.378062,13.0795976 C137.890957,13.9899725 137.623208,14.8520308 137.559342,15.7148286 C137.545831,15.8942906 137.535023,16.0683292 137.525443,16.2399027 C137.517583,16.2689913 137.512916,16.2993125 137.511933,16.3306197 C137.48958,16.8475589 137.479263,17.3248093 137.48,17.7889946 C137.479263,18.2541658 137.48958,18.7316628 137.511933,19.2483554 C137.512916,19.2789231 137.517583,19.3087513 137.525198,19.3371003 C137.534778,19.5091669 137.545831,19.6839451 137.559342,19.8641466 C137.617559,20.6483065 137.845759,21.4319734 138.251803,22.2513848 C138.123578,22.2506453 138.019427,22.2499058 137.946717,22.2491662 C137.641877,22.2469476 137.073956,22.218845 136.831999,22.1651051 C136.418095,22.0731555 136.093112,21.9013354 135.84526,21.6390449 C135.517576,21.2924467 135.324502,20.7858611 135.241721,20.0904461 C135.22035,19.9102446 135.205612,19.718457 135.198488,19.5123716 C135.198734,19.0277257 135.199471,18.545052 135.200453,18.067555 C135.201927,17.2809299 135.203155,16.4945513 135.20291,15.7081727 C135.200208,12.6011146 133.3552,10.6437961 130.140745,10.3381191 C128.639389,10.1948947 127.059182,10.6736242 125.859718,11.6214693 C125.836136,11.59879 125.810835,11.5763573 125.783815,11.5563897 C124.806656,10.7101083 123.499601,10.262686 122.004141,10.262686 C120.948868,10.262686 119.845204,10.5000786 118.896294,10.931231 C116.512596,12.0141655 116.241163,14.2564538 116.243619,15.8486855 L116.245584,16.8781266 C116.250006,18.9478553 116.254427,21.0883334 116.238706,23.1923275 C116.235267,23.6998991 116.284395,24.3366439 116.700265,24.7569497 C116.978085,25.0377288 117.377742,25.1802137 117.88843,25.1802137 C117.889658,25.1802137 117.911765,25.1799671 117.913239,25.1799671 C119.557067,25.1659159 119.551663,23.7063085 119.549698,23.1568295 C119.539872,20.5691756 119.530047,17.8935163 119.556576,15.2326479 C119.568612,14.0700895 120.270654,13.45701 121.64354,13.4096794 C121.708389,13.4077073 121.771519,13.4064747 121.834403,13.4064747 C123.416329,13.4064747 124.134337,14.0816756 124.162586,15.596009 C124.203117,17.8057575 124.189606,20.0559342 124.176342,22.2321568 L124.170938,23.1659505 C124.167744,23.7210993 124.199432,24.3489696 124.615302,24.7687824 C124.883541,25.0397009 125.272636,25.177009 125.795606,25.177009 L125.796097,25.177009 C126.313662,25.1728182 126.716022,25.0278682 126.991631,24.7461031 C127.397675,24.3314671 127.447048,23.7196202 127.44189,23.1755646 C127.418554,20.7193024 127.417817,18.1277043 127.440171,15.252862 C127.45147,13.799664 128.565942,13.4491215 129.499131,13.4111584 C129.565454,13.4082003 129.630795,13.4069677 129.695153,13.4069677 C131.196755,13.4069677 131.964873,14.1366481 131.978629,15.5755484 C131.992385,17.0321976 131.997298,18.527303 131.994105,20.0904461 L132.002702,20.0904461 C132.183494,23.5416374 133.971267,24.7246564 135.84526,25.1028084 C136.488102,25.2324746 137.438241,25.268219 138.039569,25.268219 C138.090908,25.268219 138.268998,25.2694516 138.532325,25.2711772 C138.856571,25.2733958 139.311497,25.276354 139.813587,25.2790656 C140.465517,25.2827633 141.198755,25.2857215 141.849212,25.2857215 L141.849949,25.2857215 C142.664002,25.2857215 143.191393,25.2810377 143.455948,25.2714237 C143.578032,25.2766005 143.700361,25.2812843 143.824655,25.2812843 L143.838656,25.2812843 C146.310048,25.2812843 148.341743,24.2412431 149.272721,22.4993776 C149.759581,21.5890026 150.02733,20.7271909 150.091442,19.8641466 Z" id="Fill-5" fill="#002674" fill-rule="nonzero"></path>
            <path d="M72.5494582,13.8165748 C73.7980502,13.1845138 75.1856748,13.2190257 76.261827,13.9092639 C76.9930995,14.3783794 77.2782884,15.1053482 77.1122353,16.0726678 L71.4629891,16.0726678 C71.4229496,14.9019745 71.757758,14.2176525 72.5494582,13.8165748 M90.8344651,13.3481989 C91.1766427,13.3481989 91.8543655,13.3787665 92.0287705,12.2916413 C92.1095863,11.7875209 92.0349115,11.4069038 91.8484701,11.0699196 C91.6450796,10.7026142 91.3694707,10.4957893 90.9754629,10.4161654 C90.6480238,10.3500997 90.2127483,10.3079459 89.8472349,10.3207646 L87.3114853,10.3227367 C82.348805,10.3227367 81.6546242,13.3240405 81.5639828,15.5996081 L81.5730715,17.0409735 L81.5730715,19.3480949 L81.5730715,19.4923053 C81.5730715,21.6354951 81.1844678,22.1928625 79.4492615,22.2490676 C79.3451098,22.2525188 79.2377648,22.2547374 79.1237875,22.2547374 C78.8484242,22.2547374 78.7563089,22.2537514 78.6801603,22.2530118 L78.4792261,22.2522723 L77.8722478,22.2542444 C77.8248391,22.2544909 77.7759566,22.2547374 77.7263372,22.2552305 L74.5018109,22.2552305 L74.5013197,22.2552305 C73.6845641,22.265091 73.0532674,22.130248 72.5786894,21.8351712 C71.7675836,21.3308042 71.409685,20.4048989 71.5126085,19.080874 L71.5337336,19.080874 C71.814501,19.0811206 72.1006725,19.0813671 72.3870896,19.0806275 C72.9373249,19.0796415 73.4593115,19.080381 73.9709812,19.0818601 C75.1623389,19.0853113 76.2868823,19.0882695 77.5629861,19.0547436 C79.3384775,19.007906 80.3325857,18.0203723 80.4377199,16.1983898 C80.5639793,14.0130462 79.3144047,11.9324709 77.3283992,11.0211099 C75.5197462,10.1915914 73.8970434,10.1247862 71.9024404,10.7982615 C69.6553187,11.5565376 68.4150785,13.1694765 68.315594,15.4625465 C68.2382172,17.2426217 68.2455864,18.8518629 68.3384386,20.3817266 C68.4565918,22.3267194 69.4799312,23.7855873 71.2984098,24.6005614 C72.146853,24.980932 73.0269838,25.1971245 73.9788418,25.2631902 L73.9788418,25.2772414 L74.2090071,25.2772414 C74.2230087,25.2777345 74.2365189,25.2792135 74.2507661,25.2797066 C74.2559245,25.2799531 74.261083,25.2799531 74.2662414,25.2799531 C74.2713999,25.2799531 74.2755758,25.2774879 74.2807342,25.2772414 L78.4219918,25.2772414 C78.458101,25.2774879 78.4907712,25.278967 78.527863,25.278967 C78.6081875,25.278967 78.6816341,25.2782275 78.7511504,25.2772414 L79.0021953,25.2772414 L79.0021953,25.2740368 L79.0274963,25.2735437 C79.1694767,25.2735437 79.3099832,25.2723112 79.4492615,25.2703391 C82.4013721,25.2279387 84.7752445,24.6510967 84.7752445,19.9495882 L84.7845788,19.3480949 L84.7845788,16.0706957 C84.8447608,14.0946422 85.5094647,13.3551012 87.2375474,13.341543 L90.3296733,13.3536222 C90.4458614,13.3580594 90.7231898,13.3481989 90.8344651,13.3481989" id="Fill-7" fill="#002674" fill-rule="nonzero"></path>
            <path d="M157.434602,16.2508972 C157.422075,16.2449809 157.410284,16.2380785 157.396774,16.2336413 C156.996625,16.0963331 156.616864,15.9900858 156.282056,15.8961641 C155.434595,15.6590179 154.94577,15.5024817 154.700866,15.1881768 C154.428696,14.8820069 154.435574,14.5272737 154.517373,14.2536435 C154.546358,14.0978469 154.612436,13.9600458 154.722974,13.8397471 C155.016023,13.5210049 155.56503,13.3615106 155.951423,13.3479523 L156.117477,13.3422825 L157.69056,13.3469663 L158.580762,13.3536222 C158.69695,13.3578129 158.974279,13.3481989 159.085554,13.3481989 C159.427731,13.3481989 160.105454,13.3787665 160.279859,12.2913948 C160.360675,11.7875209 160.286,11.4069038 160.099559,11.0699196 C159.896168,10.7026142 159.620559,10.4957893 159.226552,10.4161654 C158.899113,10.3500997 158.463837,10.3079459 158.098324,10.3205181 L157.048946,10.3227367 L157.048455,10.337774 C156.35845,10.32816 155.652479,10.3126296 154.868885,10.4210956 C153.298503,10.6387672 152.066123,11.5962263 151.564771,13.1928952 C151.372925,13.8042491 151.289899,14.3899656 151.30783,14.9394445 C151.350572,15.1731395 151.382014,15.4068344 151.399454,15.6412689 C151.400437,15.6528551 151.400928,15.6632086 151.401665,15.6747948 C151.475357,16.0038905 151.586878,16.3169629 151.746545,16.6058769 C152.270742,17.5537219 153.247164,18.2360717 154.566746,18.5774932 C156.484218,19.0946788 157.678769,19.6690556 157.703579,20.9282474 C157.650275,21.624402 157.292131,22.0417496 156.608512,22.2034626 C156.127302,22.3175984 155.55545,22.3210496 155.055817,22.3240078 L151.353274,22.2983704 L151.353274,22.300589 C151.077174,22.2931936 150.748998,22.4056038 150.584664,22.742588 C150.573119,22.7664998 150.562311,22.7840023 150.552239,22.797807 C150.523745,22.8540121 150.49697,22.9097242 150.467002,22.9659293 C150.442929,23.0107948 150.415172,23.0529487 150.390117,23.0968281 C150.08675,23.6285581 149.698883,24.1018643 149.240518,24.511077 C149.170756,24.5731984 149.092642,24.6274314 149.019932,24.6865947 C148.986525,24.7235718 148.938134,24.7679442 148.862968,24.8251354 C148.363335,25.2045199 148.612169,25.2942509 149.002983,25.314958 L155.819023,25.3588375 L155.821479,25.3588375 L155.82541,25.3588375 C158.842861,25.3309814 160.762052,23.7155774 160.957828,21.0485461 C161.138374,19.259843 159.846549,17.0205129 157.434602,16.2508972" id="Fill-9" fill="#002674" fill-rule="nonzero"></path>
            <path d="M6.22303846,15.9261401 C5.95283362,18.7208655 6.65831389,21.3992364 7.42839767,22.7047728 C7.71383223,23.1884326 8.11938513,23.4936165 8.41808429,23.4517092 C8.68583272,23.4125135 9.08966613,22.9959054 9.34832585,21.9519201 C10.1309373,18.7903823 9.63105837,16.1290209 9.36232738,14.6992416 C9.2328747,14.0099894 8.73668036,12.4880141 7.72758812,10.7629115 C7.07516626,12.0728851 6.42077927,13.8788442 6.22303846,15.9261401" id="Fill-11" fill="#4579BD" fill-rule="nonzero"></path>
            <g id="Group-15" transform="translate(4.421534, 0.020093)">
                <g id="Fill-13-Clipped">
                    <mask id="mask-2" fill="white">
                        <use xlink:href="#path-1"></use>
                    </mask>
                    <g id="path-1"></g>
                    <path d="M3.2529469,7.42928081 C4.09524906,6.38233729 4.98299477,5.38025926 6.8857281,4.33232969 C9.05006884,3.14018962 12.0220764,2.98883023 14.643309,3.93667526 C17.0805566,4.81870114 19.6558543,7.55500278 19.5502288,11.4795003 C19.4684304,14.5017578 18.1584282,16.7260505 15.5453018,18.2795796 C15.4738204,18.3197613 15.4020933,18.3582175 15.3296292,18.394948 C15.5907454,18.9215012 15.8260692,19.3807561 16.0046501,19.6802702 C17.6268616,22.0625783 19.2760937,23.9397798 22.9400713,22.8405754 C24.3638051,20.5578589 25.1896494,17.8614924 25.1896494,14.9698872 C25.1896494,6.76394044 18.5607878,0.111769294 10.3838982,0.111769294 C6.35514406,0.111769294 2.70443108,1.72889891 0.0348072957,4.3488461 C1.31435002,5.28806315 2.37846579,6.350044 3.2529469,7.42928081" id="Fill-13" fill="#4EC1E0" fill-rule="nonzero" mask="url(#mask-2)"></path>
                </g>
            </g>
            <g id="Group-18" transform="translate(0.000000, 5.179374)">
                <g id="Fill-16-Clipped">
                    <mask id="mask-4" fill="white">
                        <use xlink:href="#path-3"></use>
                    </mask>
                    <g id="path-3"></g>
                    <path d="M17.9882483,13.8274971 C16.3156804,14.1482114 14.681678,13.879265 13.9563009,13.5536205 C13.0948387,13.1663475 12.4365215,12.3259824 12.2382894,11.361128 C12.0489004,10.4386738 12.2972432,9.54506182 12.9376286,8.84520954 C13.5593454,8.1660644 14.3878917,7.82587555 15.2660574,7.88528534 C16.2132482,7.94962541 17.124821,8.48751822 17.7045332,9.32418558 C18.0469565,9.81819896 18.4856709,10.6674385 18.9371586,11.5795391 C18.9740047,11.5600645 19.0106052,11.5403434 19.04696,11.5198828 C21.1096055,10.2937238 22.0666219,8.67092438 22.131471,6.27012783 C22.2125325,3.26315419 20.2749182,1.1791277 18.440473,0.515512926 C16.3019245,-0.258046943 13.9081553,-0.151799555 12.1930915,0.792594281 C10.4387252,1.75892783 9.75166798,2.62098611 8.88160841,3.7125486 C8.82560232,3.78280499 8.81332028,3.79858187 8.8007926,3.81460525 C10.28913,6.08869378 10.9901887,8.21314851 11.1714716,9.17775647 C11.4659948,10.7458299 12.0145107,13.6650446 11.1346255,17.2182926 C10.5711256,19.4953392 9.35790584,20.0014318 8.68485016,20.1005303 C8.57627694,20.1163072 8.46794937,20.1241956 8.35937615,20.1241956 C7.40186847,20.1241956 6.46057307,19.5125952 5.84401477,18.4663912 C4.89584143,16.8586291 4.07884026,13.7929852 4.39055839,10.5680935 C4.6612545,7.76498667 5.67771597,5.37528324 6.56963757,3.84985671 C5.72119439,2.73241028 4.65413092,1.6157034 3.33405748,0.653560576 L3.22990579,0.578866937 C1.20508901,3.10637151 -2.45640785e-05,6.3164724 -2.45640785e-05,9.81080355 C-2.45640785e-05,18.0167503 6.62859135,24.6689215 14.805481,24.6689215 C19.1280214,24.6689215 23.0167603,22.8092224 25.7234759,19.8446491 C21.9499425,20.0369298 20.0811076,17.2907676 18.8904868,15.5402741 C18.6242122,15.1007402 18.3193721,14.4990004 17.9882483,13.8274971 Z" id="Fill-16" fill="#77BD43" fill-rule="nonzero" mask="url(#mask-4)"></path>
                </g>
            </g>
            <path d="M15.1417386,14.9079894 C15.1174202,14.9062638 15.0938387,14.9055243 15.0700115,14.9055243 C14.7786816,14.9055243 14.5178111,15.0292741 14.2935411,15.2743087 C14.0572347,15.532162 13.9724886,15.8326621 14.0415137,16.1669347 C14.1183992,16.5431145 14.3930256,16.9049966 14.708674,17.0464954 C15.0648531,17.2069758 16.0565048,17.3768237 17.1316744,17.2658926 C16.7747584,16.5537146 16.4328265,15.9043976 16.1930811,15.5582924 C15.9295085,15.1779219 15.5362377,14.9348594 15.1417386,14.9079894" id="Fill-19" fill="#EC008C" fill-rule="nonzero"></path>
            <path d="M14.7087722,17.0465694 C14.3928782,16.904824 14.1184975,16.5431885 14.0413663,16.1670086 C13.9725869,15.8327361 14.0573329,15.5322359 14.2933937,15.2741361 C14.5179093,15.0291016 14.7785342,14.9055982 15.0701098,14.9055982 C15.0936913,14.9055982 15.1175184,14.9060912 15.1418369,14.9080633 C15.5363359,14.9346868 15.9296068,15.1779958 16.1931793,15.5583664 C16.4329247,15.9044716 16.7748567,16.5537886 17.131527,17.26572 C16.0566031,17.3766512 15.0647057,17.2068032 14.7087722,17.0465694 M9.36240107,14.6992663 C9.63113206,16.1290455 10.131011,18.790407 9.34815391,21.9519447 C9.08973983,22.9959301 8.68566077,23.4125381 8.41815799,23.4517338 C8.11945882,23.4936411 7.71366029,23.1884572 7.42847136,22.7047974 C6.65838758,21.3992611 5.95266167,18.7208901 6.22311215,15.9261648 C6.42085296,13.8788688 7.07523995,12.0729097 7.72741617,10.7626896 C8.73675405,12.4880387 9.23294839,14.0100141 9.36240107,14.6992663 M20.4260609,19.7002889 C20.2474801,19.4007748 20.0124019,18.9415199 19.7510401,18.4149667 C19.8235041,18.3784827 19.8954769,18.33978 19.9667127,18.2995983 C22.5798391,16.7460692 23.8898413,14.5217764 23.9716397,11.499519 C24.0775108,7.57502147 21.5022131,4.83871983 19.0649655,3.95669395 C16.4437329,3.00884892 13.4714797,3.16020831 11.3073846,4.35234838 C9.40465128,5.40027795 8.51665993,6.40235598 7.6746034,7.4492995 C6.79987666,6.37006269 5.73576088,5.30832835 4.4564638,4.36886479 C4.01504736,4.80223581 3.60163396,5.26321635 3.21671489,5.74860175 C3.22138206,5.75205294 3.22531231,5.75476459 3.22997949,5.75821579 L3.33388553,5.83290942 C4.65420462,6.79505224 5.72126808,7.91175913 6.56971126,9.02920556 C5.67778966,10.5546321 4.6613282,12.9443355 4.39038644,15.7474424 C4.07891395,18.9723341 4.89591512,22.037978 5.84408846,23.6457401 C6.46064677,24.691944 7.40194216,25.3035444 8.35944984,25.3035444 C8.46802306,25.3035444 8.57635064,25.295656 8.68492385,25.2798791 C9.35773389,25.1807806 10.5711993,24.6746881 11.1346992,22.3976414 C12.0143387,18.8443935 11.4660685,15.9251787 11.1715453,14.3571053 C10.9902624,13.3924974 10.2892037,11.2680426 8.80086629,8.99420062 C8.81339397,8.97793071 8.82567601,8.96215384 8.83795805,8.94686999 L8.8816821,8.89189745 C9.75149603,7.80033496 10.4385532,6.93827668 12.1929196,5.97194313 C13.908229,5.02754929 16.3019982,4.92130191 18.4405467,5.69486177 C20.2747462,6.35847655 22.2126062,8.44250304 22.1312991,11.4497232 C22.0666956,13.8505197 21.1096792,15.4730727 19.0470337,16.6992316 C19.0106789,16.7196922 18.9740784,16.7396599 18.9372323,16.7588879 C18.4857446,15.8467874 18.0470302,14.9975478 17.7046069,14.5035344 C17.1246491,13.6668671 16.2133219,13.1289743 15.2661311,13.0646342 C14.3879654,13.0052244 13.5594191,13.3454133 12.9377023,14.0245584 C12.2973169,14.7246572 12.0489741,15.6180227 12.2383631,16.5404768 C12.4365952,17.5053313 13.0949124,18.3456964 13.9563746,18.7329693 C14.6817517,19.0586139 16.3157541,19.3278068 17.988322,19.006846 C18.3194458,19.6783492 18.6240403,20.2800891 18.8632944,20.676976 L18.8905605,20.7196229 C20.0809356,22.4701164 21.9500162,25.2162786 25.7235496,25.023998 C26.3329843,24.356439 26.8805175,23.6316888 27.3617278,22.8605941 C23.6977502,23.960045 22.0485181,22.0828435 20.4260609,19.7002889" id="Fill-21" fill="#2A2F7C" fill-rule="nonzero"></path>
            <path d="M110.500317,21.6289625 C110.059392,22.0127843 109.38609,22.206544 108.468868,22.2176371 C108.422196,22.2218279 108.373559,22.2250325 108.319518,22.2260186 C107.345307,22.2432745 106.855254,22.1565017 106.405486,21.9597838 L106.362253,21.917137 C105.826019,21.6156508 105.375268,20.9655942 105.390498,19.9815117 C105.403026,19.2062262 105.649158,18.2603533 106.752822,18.1573106 C107.86189,18.0540214 108.968256,18.0764541 110.139471,18.0998729 C110.527092,18.1077614 110.920854,18.1156498 111.323705,18.119101 C111.320266,18.3663542 111.317318,18.579835 111.330091,18.7765529 C111.356621,20.2070717 111.092802,21.1135024 110.500317,21.6289625 M114.434254,14.7320033 C114.162821,12.3755792 112.337956,10.640123 109.893584,10.4138235 C108.728265,10.3058505 107.499569,10.2585199 106.238941,10.2705991 C106.225676,10.2705991 106.213149,10.2735572 106.199884,10.2747898 L102.95497,10.2747898 C102.777617,10.305604 102.568086,10.3235995 102.314093,10.3235995 C102.222469,10.3235995 102.137477,10.3314879 102.048801,10.3349391 C100.781049,10.3864605 99.8090485,10.792715 99.0851452,11.3429335 C98.1318134,12.0671906 97.6012294,13.031059 97.3764681,13.7331299 C97.3764681,13.7331299 97.3693445,13.734116 97.3592732,13.7355951 C96.7618749,15.7030206 96.4567891,16.7376384 96.135491,17.8264893 C96.1325433,17.8361033 96.1298412,17.8457173 96.1268935,17.8553314 C96.1141202,17.9043876 95.4022533,20.6500568 95.357301,20.8174395 C95.3032601,21.0188412 95.2497104,21.1800611 95.1067475,21.2759549 C95.1065018,21.276448 95.1065018,21.2766945 95.1062562,21.2771875 C95.1062562,21.276941 95.1060105,21.2766945 95.1060105,21.276448 C95.0185624,21.3348717 94.8979528,21.3686441 94.7230566,21.3720953 C94.2428289,21.3812163 94.197631,21.1810472 94.049264,20.7617274 C93.9397082,20.4521063 92.8802596,17.0896599 92.3324807,15.348534 C92.0411508,14.7583803 91.7048686,14.564867 91.0116703,14.5032386 L90.9767893,14.5032386 L89.4260592,14.5032386 C89.257304,14.5027456 89.1352206,14.519755 89.0472812,14.5515553 C88.8650157,14.6171279 88.8325911,14.7482732 88.8613311,14.9306933 L89.1099196,15.8563521 C89.7918183,18.2344694 90.1546297,19.4581632 91.2966136,23.171152 C91.6960255,24.4700325 92.7751254,25.3180394 94.7503227,25.3180394 C96.7252744,25.3180394 97.4862695,24.5267306 97.9512675,23.2473247 C98.1362349,22.7380275 98.7412481,20.6870338 99.507156,18.0905054 C99.7609029,17.2299262 100.028406,16.323249 100.2964,15.4192834 C100.625067,14.4603452 101.212149,13.3239173 103.197417,13.3239173 C103.317781,13.3239173 103.420705,13.3175079 103.512329,13.3071543 L106.233291,13.3138102 C106.25196,13.3162753 106.270137,13.3197265 106.289543,13.3197265 C106.997971,13.3197265 107.680115,13.3258894 108.379209,13.3320522 L108.919619,13.3369825 C110.177054,13.3475826 110.839301,13.8492379 111.169688,15.0943784 C110.897272,15.0921598 110.627068,15.0892016 110.358582,15.0862434 C108.958676,15.069727 107.637374,15.0549362 106.295438,15.195449 C103.993048,15.4365393 102.431018,17.0955763 102.11758,19.6336809 C101.836567,21.9062904 103.180468,24.0736385 105.312875,24.7868025 C106.326144,25.1257588 107.296916,25.2854996 108.383631,25.2854996 C108.618954,25.2854996 108.859682,25.2778577 109.107288,25.2630669 C112.229874,25.0769491 114.123518,23.5167641 114.439658,20.8701935 C114.676947,18.8877306 114.675227,16.8224391 114.434254,14.7320033" id="Fill-23" fill="#002674" fill-rule="nonzero"></path>
        </g>
    </g>
</svg>